<svg id="visual" viewBox="0 0 900 600" width="900" height="600" xmlns="http://www.w3.org/2000/svg" xmlns:xlink="http://www.w3.org/1999/xlink" version="1.1"><rect x="0" y="0" width="900" height="600" fill="#001220"></rect><path d="M0 407L21.5 401.2C43 395.3 86 383.7 128.8 378.2C171.7 372.7 214.3 373.3 257.2 382C300 390.7 343 407.3 385.8 405.2C428.7 403 471.3 382 514.2 371.3C557 360.7 600 360.3 642.8 362.8C685.7 365.3 728.3 370.7 771.2 376.5C814 382.3 857 388.7 878.5 391.8L900 395L900 601L878.5 601C857 601 814 601 771.2 601C728.3 601 685.7 601 642.8 601C600 601 557 601 514.2 601C471.3 601 428.7 601 385.8 601C343 601 300 601 257.2 601C214.3 601 171.7 601 128.8 601C86 601 43 601 21.5 601L0 601Z" fill="#fa7268"></path><path d="M0 396L21.5 395.7C43 395.3 86 394.7 128.8 398.3C171.7 402 214.3 410 257.2 414.2C300 418.3 343 418.7 385.8 418.3C428.7 418 471.3 417 514.2 426.7C557 436.3 600 456.7 642.8 458.8C685.7 461 728.3 445 771.2 433C814 421 857 413 878.5 409L900 405L900 601L878.5 601C857 601 814 601 771.2 601C728.3 601 685.7 601 642.8 601C600 601 557 601 514.2 601C471.3 601 428.7 601 385.8 601C343 601 300 601 257.2 601C214.3 601 171.7 601 128.8 601C86 601 43 601 21.5 601L0 601Z" fill="#ef5f67"></path><path d="M0 451L21.5 459.2C43 467.3 86 483.7 128.8 488.3C171.7 493 214.3 486 257.2 479.5C300 473 343 467 385.8 461C428.7 455 471.3 449 514.2 446.2C557 443.3 600 443.7 642.8 452.8C685.7 462 728.3 480 771.2 491C814 502 857 506 878.5 508L900 510L900 601L878.5 601C857 601 814 601 771.2 601C728.3 601 685.7 601 642.8 601C600 601 557 601 514.2 601C471.3 601 428.7 601 385.8 601C343 601 300 601 257.2 601C214.3 601 171.7 601 128.8 601C86 601 43 601 21.5 601L0 601Z" fill="#e34c67"></path><path d="M0 518L21.5 512.7C43 507.3 86 496.7 128.8 497.8C171.7 499 214.3 512 257.2 517.2C300 522.3 343 519.7 385.8 513.7C428.7 507.7 471.3 498.3 514.2 495.8C557 493.3 600 497.7 642.8 499.5C685.7 501.3 728.3 500.7 771.2 504.3C814 508 857 516 878.5 520L900 524L900 601L878.5 601C857 601 814 601 771.2 601C728.3 601 685.7 601 642.8 601C600 601 557 601 514.2 601C471.3 601 428.7 601 385.8 601C343 601 300 601 257.2 601C214.3 601 171.7 601 128.8 601C86 601 43 601 21.5 601L0 601Z" fill="#d53867"></path><path d="M0 552L21.5 555.3C43 558.7 86 565.3 128.8 567.7C171.7 570 214.3 568 257.2 566.3C300 564.7 343 563.3 385.8 564.3C428.7 565.3 471.3 568.7 514.2 568.7C557 568.7 600 565.3 642.8 565.5C685.7 565.7 728.3 569.3 771.2 567C814 564.7 857 556.3 878.5 552.2L900 548L900 601L878.5 601C857 601 814 601 771.2 601C728.3 601 685.7 601 642.8 601C600 601 557 601 514.2 601C471.3 601 428.7 601 385.8 601C343 601 300 601 257.2 601C214.3 601 171.7 601 128.8 601C86 601 43 601 21.5 601L0 601Z" fill="#c62368"></path></svg>